<svg height="44" viewBox="0 0 48 44" width="48" xmlns="http://www.w3.org/2000/svg"><g fill="none" transform="translate(0 -2)"><path d="m0 0h48v48h-48z"/><path d="m10.451613 3.42722699 13.5-1.42722699 13.5 1.42722699 10.4516128 14.03036701-23.9516128 27.891402-23.951613-27.891402z" fill="#fdb300"/><path d="m9.70160406 17.457594 14.25003044 27.8914112-23.9516345-27.8914112z" fill="#ea6c00"/><path d="m33.6531738 17.457594 14.2500304 27.8914112-23.9516345-27.8914112z" fill="#ea6c00" transform="matrix(-1 0 0 1 71.854774 0)"/><path d="m9.70160406 17.457594h28.50006094l-14.2500305 27.8914112z" fill="#fdad00"/><path d="m23.9516345 2-13.5000609 1.42720812-.74996954 14.03037568z" fill="#fdd231"/><path d="m38.2015914 2-13.5000609 1.42720812-.7499696 14.03037568z" fill="#fdd231" transform="matrix(-1 0 0 1 62.153152 0)"/><path d="m37.4515697 17.4575838 10.4516954-14.03037568-.7500913 14.03037568z" fill="#fdad00" transform="matrix(-1 0 0 1 85.354834 0)"/><path d="m0 17.4575838 10.4515736-14.03037568-.74996954 14.03037568z" fill="#fdad00"/><path d="m23.9516345 2-14.25003044 15.4575838h28.50006094z" fill="#feeeb7"/></g></svg>