<svg height="44" viewBox="0 0 48 44" width="48" xmlns="http://www.w3.org/2000/svg"><g fill="none"><path d="M0-2h48v48H0z"/><path d="M10.452 1.427L23.952 0l13.5 1.427 10.451 14.03L23.952 43.35 0 15.458z" fill="#fdb300"/><path d="M9.702 15.458l14.25 27.891L0 15.458zM38.202 15.458l-14.25 27.891 23.951-27.891z" fill="#ea6c00"/><path d="M9.702 15.458h28.5l-14.25 27.891z" fill="#fdad00"/><path d="M23.952 0l-13.5 1.427-.75 14.03zM23.952 0l13.5 1.427.75 14.03z" fill="#fdd231"/><path d="M47.903 15.458L37.452 1.428l.75 14.03zM0 15.458l10.452-14.03-.75 14.03z" fill="#fdad00"/><path d="M23.952 0L9.702 15.458h28.5z" fill="#feeeb7"/></g></svg>