<svg width="48" height="45" viewBox="0 0 48 45" xmlns="http://www.w3.org/2000/svg"><title>resource-icon-dropbox</title><g fill-rule="nonzero" fill="none"><path d="M0-2h48v48H0z"/><path d="M24 26.033l-9.88 8.313L0 25.054l9.764-7.88L24 26.033l14.236-8.862L48 25.054l-14.12 9.292L24 26.033zM14.12 0L0 9.292l9.764 7.88L24 8.312 14.12 0zm9.909 27.822l-9.91 8.288-4.24-2.791v3.128L24.03 45l14.15-8.553V33.32l-4.241 2.791-9.91-8.288zM48 9.292L33.88 0 24 8.313l14.236 8.86L48 9.292z" fill="#0F82E2"/></g></svg>