<svg width="48" height="48" viewBox="0 0 48 48" xmlns="http://www.w3.org/2000/svg"><title>resource-icon-sketchrunner</title><g fill-rule="nonzero" fill="none"><path d="M43.649 0H4.35A4.351 4.351 0 0 0 0 4.351V43.65A4.351 4.351 0 0 0 4.351 48H43.65A4.351 4.351 0 0 0 48 43.649V4.35A4.351 4.351 0 0 0 43.649 0z" fill="#308ADF"/><path d="M40.145 39.233H34.55c-1.046 0-1.803-.399-2.271-1.197l-5.698-9.187c-.234-.358-.492-.62-.775-.785-.282-.165-.698-.247-1.249-.247h-2.105v11.416h-6.194l6.353-15.755h3.97s4.819-.38 4.819-5.232c0-4.506-5.23-4.258-5.23-4.258s1.096-4.678 1.823-4.611c1.128.103 2.143.287 3.047.55 1.486.434 2.705 1.036 3.654 1.807.95.77 1.645 1.69 2.085 2.756.44 1.067.661 2.24.661 3.52 0 .991-.141 1.93-.423 2.818a8.307 8.307 0 0 1-1.229 2.426 8.856 8.856 0 0 1-1.982 1.94 10.25 10.25 0 0 1-2.683 1.363c.399.22.77.485 1.114.795.345.31.654.678.93 1.105l6.978 10.776z" fill="#FFF"/><path d="M13.294 37.856c-.253.665-.655 1.167-1.207 1.506-.553.34-1.114.51-1.687.51H8.065l11.516-29.796c.226-.6.585-1.065 1.077-1.397.492-.333 1.058-.5 1.697-.5h2.355L13.294 37.857z" fill="#FCD872"/></g></svg>