<svg width="457" height="376" viewBox="0 0 457 376" xmlns="http://www.w3.org/2000/svg"><title>hero_bg</title><g fill="none" fill-rule="evenodd"><path d="M56.113 309.504c1.07-.702 2.227-1.244 2.79-2.577.367-.87 1.298-1.311 2.188-1.658 3.249 6.032 7.979 10.759 13.154 15.125 5.233 4.415 10.964 8.143 16.506 12.127 4.186 3.01 8.648 5.63 12.886 8.568 6.237 4.326 12.945 7.769 19.705 11.176 12.249 6.171 24.938 11.227 37.847 15.803 9.738 3.452 19.714 6.019 29.762 8.308 8.048 1.835 16.083 3.792 24.241 5.08 6.613 1.043 13.287 1.7 19.906 2.703 4.672.708 9.347 1.371 14.039 1.916 2.91.338 5.822.694 8.742.91 7.738.574 15.492.386 23.241.403 5.895.012 11.79.033 17.684-.013 7.195-.056 14.339-.95 21.51-1.358 4.491-.255 8.936-.88 13.41-1.247 5.951-.49 11.88-1.35 17.819-1.969 9.212-.959 18.181-3.096 27.11-5.277 13.206-3.226 26.581-5.636 39.793-8.818 11.101-2.675 22.115-5.506 32.366-10.703a34.971 34.971 0 0 0 3.435-1.972c.846-.559 1.59-.658 2.181.213.606.892.365 1.746-.506 2.344-2.185 1.502-4.52 2.747-6.925 3.849-9.206 4.217-18.917 6.92-28.72 9.217-11.299 2.646-22.74 4.69-34.013 7.431-9.195 2.235-18.435 4.238-27.69 6.169-4.315.9-8.763 1.185-13.158 1.683a1616 1616 0 0 1-19.256 2.072c-3.333.337-6.683.503-10.018.822-15.877 1.52-31.8 1.193-47.706.999-6.8-.083-13.602-.676-20.389-1.549-6.818-.876-13.616-1.916-20.438-2.766-9.91-1.234-19.745-2.934-29.472-5.282-9.14-2.206-18.38-4.03-27.363-6.83-8.991-2.804-17.855-5.991-26.613-9.478-9.838-3.917-19.336-8.544-28.748-13.363-7.492-3.838-14.321-8.732-21.283-13.424-4.87-3.282-9.7-6.624-14.436-10.085-4.594-3.357-9.15-6.805-13.053-11-2.085-2.241-4.023-4.611-5.678-7.187-.87-1.353-1.762-1.622-3.095-.644-.457.336-1.006 1.296-1.755.282zM289.98 133c.158.872-.671 1.399-.769 2.18-.781-.01-1.563-.01-2.344-.033-11.467-.331-22.874 1.302-34.339 1.068-1.742-.035-3.5-.116-5.227.055-7.731.765-15.452 1.642-23.183 2.425-7.208.73-14.337 1.974-21.413 3.456-13.408 2.807-26.75 5.896-39.982 9.48a186.292 186.292 0 0 0-31.784 11.807c-7.149 3.42-14.009 7.376-21.032 11.028-4.626 2.405-9.165 4.913-13.374 8.047-7.288 5.426-14.673 10.712-21.6 16.612a170.536 170.536 0 0 0-17.63 17.397c-2.042 2.328-4.175 4.899-3.35 8.478-1.689-2.581-2.813-5.237-1.099-8.267.468.024.772-.211 1.046-.574 4.672-6.192 10.383-11.386 16.046-16.635 6.022-5.583 12.623-10.447 19.172-15.362 6.597-4.953 13.449-9.525 20.953-13.097 4.53-2.156 8.798-4.85 13.27-7.133 5.328-2.72 10.777-5.198 16.285-7.542 13.796-5.871 28.4-9.013 42.874-12.595 9.408-2.327 18.916-4.212 28.442-5.947 5.985-1.091 12.054-1.802 18.134-2.383 11.105-1.061 22.21-1.628 33.37-1.91 9.176-.232 18.352-.51 27.534-.555z" fill="#D8DBEB"/><path d="M274.99 232.328l-.082-.092c-.546-.617-1.246-.802-1.917-.33-.723.51-.357 1.186-.013 1.761.273.457.622.867.938 1.298-1.466.714-2.898-.627-4.41-.059-.45.17-1.491.453-1.562-.554a.888.888 0 0 1 .022-.304c-.102.086-.159.235-.14.493.071 1.004 1.122.72 1.575.552 1.524-.566 2.967.77 4.445.06l1.152 1.335.002 1.688c-3.36 1.286-6.985 1.573-10.379 2.743-.432.149-.966.108-1.364-.257-3.577-3.277-7.627-6.031-10.815-9.737-.19-.222-.297-.516-.442-.776.994-.597 2.097-.383 3.166-.424.825-.032 1.628.078 2.417-.454.991-.668 1.807.033 2.555.663 1.683 1.418 3.505 2.02 5.76 1.475 1.291-.313 2.689.573 4.081-.112.281-.138 1.26.308 1.168.865-.019.115-.05.223-.089.324.086-.155.149-.328.18-.522.092-.56-.88-1.007-1.158-.868-1.381.687-2.768-.202-4.049.113-2.236.547-4.044-.058-5.713-1.48-.742-.633-1.552-1.338-2.535-.667-.783.535-1.58.424-2.398.456-1.06.041-2.154-.173-3.14.425-.535-.163-.897-.512-1.14-.989l-.046.007c-.354.049-.72.013-1.08.014a.474.474 0 0 1-.004-.005c.035.285.033.63-.004 1.03-.414-.516-.796-1.084-.971-1.986.46-.07.752.13.895.573.09-.747-.228-1.127-1.048-1.057-.603-.75-1.19-1.514-1.813-2.247-.421-.496-.797-1.013-1.63-.889-1.589.239-1.743.52-.788 1.843a73.31 73.31 0 0 0 13.643 14.355c.353.283.967.467.792 1.049-.138.456-.703.357-1.101.458-2.267.578-4.556 1.085-6.787 1.782-1.332.416-2.273.173-3.145-.887-.647-.787-1.433-1.44-1.935-2.368-.339-.625-.94-.976-1.66-.461-.65.465-.75 1.085-.31 1.738.504.748.997 1.521 1.61 2.172.808.86.535 1.129-.469 1.343-2.404.511-4.795 1.088-7.188 1.65-.797.188-1.384-.24-1.997-.624-3.084-1.941-5.37-4.813-8.17-7.085-2.648-2.15-4.734-4.777-6.598-7.609-.23-.349-.491-.713-.823-.95-.7-.504-1.473-.129-2.006.233-.672.457.074.936.322 1.346 3.5 5.773 8.748 9.884 13.563 14.406.381.358 1.06.561.928 1.202-.108.526-.737.535-1.177.695-2.715.99-5.538 1.565-8.343 2.219-1.298.302-1.993-.65-2.828-1.257-.87-.633-1.6-1.46-2.446-2.13-.582-.462-1.234-.48-1.748.176-.501.64-.062 1.122.305 1.604.071.094.176.162.266.243.69.62 1.976 1.103 1.738 2.04-.193.757-1.568.593-2.41.86-1.716.543-3.517.867-5.164 1.567-1.654.703-2.795.212-4.065-.825-4.136-3.379-7.552-7.41-10.76-11.647-.764-1.008-1.578-1.979-2.314-3.006-.727-1.014-1.689-.75-2.37-.231-.767.584.12 1.162.461 1.612 3.894 5.13 7.57 10.457 12.668 14.521 1.095.874.904 1.276-.375 1.695-2.736.896-5.466 1.803-8.224 2.64-1.916.583-3.25.197-4.401-1.32-.4-.527-.808-1.047-1.218-1.566-.447-.564-.944-.989-1.664-.421-.637.503-.673 1.132-.22 1.755.46.63.953 1.245 1.493 1.806.742.767.88 1.237-.384 1.543-2.39.578-4.783 1.164-7.12 1.923-1.357.441-2.27.106-3.202-.862-4.349-4.52-8.386-9.3-12.056-14.394a16.019 16.019 0 0 0-.773-.998c-.751-.886-1.637-.424-2.26.023-.718.515.053 1.091.36 1.513 3.69 5.07 7.475 10.065 11.88 14.54.9.913 1.214 1.504-.39 1.784-3.082.54-6.025 1.61-9.03 2.442-.761.21-1.035.183-1.389-.712-.65-1.642-2.162-2.692-3.415-3.887-.482-.46-1.16-.391-1.591.187-.425.57-.254 1.155.212 1.638.878.91 1.762 1.817 2.666 2.703.578.566.48.869-.288 1.08-2.778.762-5.538 1.59-8.327 2.31-1.31.337-2.1-.729-2.898-1.478-4.132-3.885-7.79-8.2-11.255-12.69-.804-1.042-1.614-2.146-3.287-1.424-.816.353-.914.573-.319 1.22 4.077 4.427 7.456 9.462 11.799 13.662 1.381 1.336 1.33 1.45-.52 1.912-3.433.857-6.878 1.668-10.316 2.506-.819.2-1.421.14-1.983-.702-.831-1.243-2.273-1.942-3.11-3.24-.33-.512-.953-.496-1.44-.097-.493.405-.481.963-.24 1.49.493 1.078 1.443 1.761 2.279 2.535.668.618.58.969-.295 1.2-3.306.874-6.527 2.059-9.9 2.693-.653.122-1.11.046-1.645-.367-5.632-4.35-10.338-9.539-14.012-15.653-.693-1.153-1.576-1.06-2.44-.525-1.057.655.001 1.319.292 1.771 3.76 5.842 7.82 11.434 13.815 15.69-3.018 1.21-5.889 1.91-8.787 2.517-.88.184-1.772.314-2.65.509-3.429.76-3.42.762-5.211-2.38-.48-.84-.829-2.336-2.102-1.598-1.26.73-.346 1.934.192 2.828 1.606 2.668 1.615 2.605-1.433 3.31a172.568 172.568 0 0 0-8.188 2.112c-2.682.761-2.74.787-4.453-1.525-2.625-3.542-4.825-7.353-7.001-11.179-.685-1.206-1.39-2.402-2.018-3.639-.515-1.016-1.36-1.027-2.132-.63-.896.461-.241 1.192.045 1.705 2.908 5.212 5.707 10.504 9.337 15.258 1.06 1.387.502 1.65-.733 1.963-2.556.646-5.25.618-7.73 1.629-.612.25-1.247.438-1.86.685-2.893 1.167-2.891 1.17-4.44-1.605-.03-.053-.052-.11-.085-.16-.53-.792-.764-2.358-2.075-1.664-1.327.703-.397 1.946.088 2.845 1.252 2.321 1.256 2.212-1.134 3.153-2.45.965-5.08.812-7.569 1.472-.754.2-1.09-.367-1.398-.886-1.596-2.698-3.163-5.414-4.772-8.105-.467-.782-.26-1.16.538-1.484 1.954-.79 3.953-1.407 5.998-1.915 3.26-.81 5.253-3.164 5.637-6.515.325-2.842-2.92-5.037-6.117-4.126-1.845.526-3.705 1.014-5.519 1.634-1.035.354-1.477.231-1.295-.952.41-2.68.806-5.363 1.217-8.044.11-.72.454-1.075 1.26-1.25 4.455-.97 8.906-1.971 13.255-3.367.526-.169 1.028-.313 1.558-.001.39.229.9.26 1.209.003 2.509-2.083 5.704-1.426 8.538-2.195 5.212-1.414 10.482-2.614 15.7-4.007 8.795-2.349 17.576-4.73 26.43-6.868 9.124-2.202 18.056-5.196 27.09-7.78 2.708-.776 5.446-1.52 8.22-1.969 7.562-1.222 15.075-2.724 22.408-4.895 10.534-3.117 21.269-5.343 31.95-7.808 4.384-1.012 8.67-2.423 13.07-3.306 9.188-1.846 18.02-5.027 27.136-7.123.56 1.502 2.218 2.574 1.616 4.557-.185.612.52.576.868.346.07-.047.142-.09.214-.128-.08-.078-.111-.207-.052-.402.598-1.981-1.05-3.052-1.61-4.553 3.6-.826 7.251-1.484 10.783-2.546 1.891-.568 2.905-.31 4.118 1.317 3.353 4.496 7.89 7.901 11.483 12.177 2.745 3.267 6.364 5.438 9.386 8.333 1.59 1.522 1.54 1.566-.556 2.32-4.329 1.559-8.607 3.294-13.27 3.579l-.002-1.694c.201.13.398.265.604.385.552.324 1.155.634 1.674.25-.447.176-.943-.073-1.401-.331-.196-.11-.383-.234-.574-.352l-1.087-1.224c-.3-.393-.631-.768-.891-1.184-.327-.525-.675-1.142.012-1.607.548-.37 1.116-.298 1.594.085zm-18.576-14.98c.484-.057.972-.098 1.44-.232-.484.057-.972.097-1.44.231zm2.255-.364c.485.054.908.372 1.181.888.414.781-.103 1.177-.645 1.634a18.126 18.126 0 0 1-2.011 1.5c-.927.586-2.149.452-2.931 1.266-.404.42-.84.72-1.311.897.885-.002 1.657-.372 2.337-1.083.78-.814 1.995-.68 2.918-1.265.714-.453 1.36-.956 2.002-1.5.539-.456 1.054-.851.642-1.632-.386-.732-1.072-1.066-1.81-.811a3.756 3.756 0 0 1-.372.106zm-7.4 6.313a4.038 4.038 0 0 1-.063-.012c-.463-.092-.846-.06-1.101.355-.316.516-.108.94.342 1.237.485.32.687.712.314 1.2-.554.72-.392 1.012.484 1.146.497.076 1.194.22 1.086.94-.051.34-.263.523-.532.632.101-.003.202-.01.301-.024.532-.073 1.173-.171 1.266-.796.108-.72-.586-.864-1.08-.94-.872-.134-1.033-.425-.483-1.146.372-.487.171-.88-.311-1.2-.448-.296-.656-.72-.34-1.235a.965.965 0 0 1 .117-.157zM42.537 273.096c.413 1.224-.674 1.612-1.92 1.904-1.34-2.274-2.783-4.504-3.991-6.835-1.21-2.333-.685-3.23 1.745-3.956 1.4-.419 2.18-.297 2.61 1.19.589 2.03 1.718 3.92 2.019 6.04-.373.3-1.14.374-.714 1.116.08.138.143.267.194.388-.165-.571.447-.663.761-.943 1.383 3.761 2.834 7.5 4.126 11.292.87 2.553.79 2.645 3.434 1.763 1.234-.411 1.773-.129 2.375 1.062 1.343 2.66 2.899 5.212 4.431 7.77.596.995.608 1.463-.63 1.958-4.511 1.802-4.606 1.805-7.287-2.24-2.591-3.91-4.648-8.135-6.57-12.377-.79-1.741-1.459-3.659-2.12-5.52 1.33-.344 2.466-.817 1.57-2.545a1.527 1.527 0 0 1-.033-.067zM7.494 11.196c3.829-.674 7.752-.851 11.454-2.192.338-.123.686-.22 1.024-.346 2.894-1.071 3.19-1.118 3.68 2.035.899 5.789 2.219 11.501 2.89 17.334.704 6.115 1.584 12.214 2.55 18.3.797 5.013 1.218 10.09 1.708 15.147.593 6.135 1.423 12.236 2.26 18.342 1.096 7.998 2.497 15.952 3.24 24.005 1.08 11.73 2.187 23.465 4.198 35.086 1.685 9.737 2.485 19.568 3.385 29.396.922 10.07 2.41 20.064 4.33 30.004.906 4.683 1.172 9.489 1.728 14.239.223 1.9.792 3.835.602 5.692-.491 4.818 1.698 9.169 2.062 13.824.332 4.231.89 8.445 1.37 12.664.139 1.223-.289 2.087-1.394 2.651-.914.467-1.807.976-2.706 1.471.039.023.08.045.125.065-.628.87-1.585 1.011-2.532 1.06-2.466.129-4.895-.223-7.297-.737-1.508-.324-2.54-1.088-2.77-2.817-1.03-7.756-2.306-15.484-3.16-23.258-.822-7.482-1.83-14.941-2.364-22.463-.404-5.709-1.762-11.326-2.913-16.95-1.7-8.314-3.05-16.69-4.195-25.1-.926-6.802-1.97-13.59-2.757-20.41-.492-4.27-1.094-8.528-1.257-12.847-.234-6.205-1.178-12.35-2.161-18.482-.88-5.484-1.646-10.986-2.437-16.483a723.355 723.355 0 0 0-3.014-19.119c-.796-4.645-1.359-9.33-1.75-14.043-.515-6.19-1.204-12.38-2.2-18.508-1.294-7.959-2.627-15.923-4.608-23.754-.03-.116-.033-.239-.063-.355-.962-3.678-.92-3.73 2.972-3.62a3.071 3.071 0 0 0 0 .168zm293.89 102.296c1.544-3.792 4.143-6.92 6.628-10.087 2.307-2.94 4.718-5.955 7.861-7.946 4.033-2.555 7.133-6.436 11.515-8.355 4.183-1.832 8.563-3.184 13.057-4.146 8.877-1.902 17.757-2.86 26.74-.807 1.148.262 2.243.832 3.493.34.514-.204 1.041.182 1.525.424 6.034 3.014 11.708 6.64 17.37 10.302 3.33 2.153 6.95 3.854 10.253 6.044 2.314 1.535 5.041 2.44 7.174 4.616-1.993-.206-3.785-.314-5.55-.592-2.82-.444-5.285 1.148-8.078 1.23-4.046.121-8.078.942-12.07 1.791-6.479 1.378-12.35 4.288-18.131 7.373-6.661 3.555-12.172 8.57-17.053 14.321a7.916 7.916 0 0 1-.1-.015c-3.736 4.327-6.931 9.037-9.515 14.114-3.81 7.486-5.6 15.652-7.665 23.715-.473 1.846-.57 3.784-1.372 5.55l-.573.088c-1.523 4.31-1.834 8.84-1.662 13.305.159 4.15.232 8.299.256 12.447.032 5.868-1.866 11.326-3.727 16.778-.31.907-.692 1.804-1.157 2.64-.836 1.5-1.317 3.198-3.382 3.81-1.06.313-1.82 1.636-2.723 2.495-2.427 2.308-4.98 4.3-8.651 3.703-.758-.123-1.34.458-1.995.728-2.827 1.164-4.156.782-6.214-1.448-2.892-3.133-6.051-5.962-9.449-8.57-5.33-4.09-10.31-8.61-15.002-13.44-1.083-1.116-2.324-2.075-3.459-3.14-.32-.302-.903-.563-.678-1.143.183-.472.727-.303 1.117-.388 5.726-1.253 10.62-4.13 14.68-8.249 4.476-4.543 6.654-10.215 6.722-16.624.061-5.784 0-11.57-.007-17.356l.006.004-.026-.509c1.098-.785 1.032-1.438-.258-2.536-.566-6.007-.328-11.99 1.094-17.853 1.095-4.512 1.406-9.223 3.6-13.474 1.626-3.152 3.577-6.102 5.38-9.142l.026.002zm19.875 6.619c-.48.18-.754.507-.536 1.29.474-.099.825-.344.623-.959-.04-.12-.068-.23-.087-.331zm-26.006 39.818c.025.107.045.22.06.339.01.09.033.168.065.233v-.001a3.111 3.111 0 0 0-.125-.571zm3.08 1.297c.031.098.056.208.072.333.184 1.423-1.225.267-1.825 1.124a.97.97 0 0 1 .27.037c.67-.472 1.829.357 1.66-.932a1.457 1.457 0 0 0-.178-.562zm2.439 1.645c.057.128.122.244.195.35a2.322 2.322 0 0 1-.078-.161.747.747 0 0 0-.117-.189zm7.512 4.263c.373.413.93 1.199 1.362 1.634.607.61 1.487 1.032.528 2.102-.291.325-.18.76.143.864-.101-.183-.082-.442.11-.654.972-1.068.08-1.489-.534-2.098-.54-.534-1.27-1.6-1.609-1.848zm4.211 4.658c.344.347.534.92.741 1.497.203.564.485 1.108.622 1.687.104.441.311.657.571.754-.118-.124-.211-.302-.271-.553-.139-.577-.424-1.12-.63-1.683-.26-.714-.495-1.425-1.033-1.702zm8.814-11.666a.955.955 0 0 1 .144.198c.267.485.512.69.757.734a2.258 2.258 0 0 1-.361-.502.871.871 0 0 0-.54-.43zm3.676.416c.256.237.406.622.424 1.095.098 2.61.116 5.243-.114 7.841-.126 1.414-.253 1.83.399 1.839-.115-.247-.034-.74.045-1.626.233-2.593.215-5.22.116-7.825-.026-.698-.347-1.202-.87-1.324zM282 239.89c.832-.748 1.92-.807 3-.889-.722 1.045-1.801 1.128-3 .89zm3-1.34c.227-.502.58-.614 1-.517-.134.796-.318 1.433-1 .518zm109.478-132.474c4.303.205 8.621.219 12.888.978 1.858.331 3.487 1.513 5.486 1.362.368-.029 1.566.013.835 1.14-.03.046.274.405.476.486 3.477 1.409 5.15 4.73 7.619 7.196 6.138 6.134 7.306 14.387 9.355 22.26.504 1.935.258 4.096 1.726 5.758.164.186.141.579.127.872-.106 2.269.2 4.668-.445 6.775-1.19 3.876-.413 7.889-1.342 11.737-.127.523-.153 1.077-.333 1.578-2.935 8.186-5.969 16.262-10.946 23.575-5.49 8.068-11.994 14.992-20.08 20.384-4.61 3.075-9.822 5.04-14.873 7.293-5.109 2.28-10.65 2.877-15.953 4.386-5.14 1.463-10.17 3.275-15.229 5-5.221 1.779-10.59 3.125-15.885 4.691-5.582 1.65-11.127 3.44-16.74 4.98-5.663 1.556-11.373 2.954-17.15 4.05-.235.045-.478.054-.713.103-2.9.605-2.889.606-3.007-2.276-.034-.834-.14-1.667-.23-2.498-.292-2.723.36-3.664 2.926-4.759 4.236-1.806 8.407-3.823 12.67-5.493 3.48-1.362 5.205-4.12 7.264-6.62 1.588-1.928 1.63-4.714 2.46-7.085 1.7-4.86 1.756-9.819 1.508-14.914-.269-5.494-.138-11 .424-16.53.93-9.159 3.715-17.829 6.181-26.576 1.921-6.813 5.69-12.834 9.69-18.629 5.413-7.843 12.165-14.427 20.21-19.513 8.324-5.262 17.667-7.964 27.298-9.68 1.224-.219 2.52-.03 3.783-.03zM52 261.97c-.398 3.554-.786 7.108-1.204 10.66-.084.713-.433 1.197-1.301 1.225-.91.03-1.812-.029-2.737.127-1.019.173-.99-.895-1.159-1.503-1.25-4.521-2.975-8.88-4.656-13.252-.903-2.35-1.896-4.665-2.943-7.226 3.776.424 7.334 1.336 10.982.864.05 2.24.07 4.47.716 6.666.372 1.263 1.041 2.072 2.302 2.439zm-3.556 41.02c-1.651-.97-1.99-2.91-2.903-4.41-3.564-5.858-6.41-12.137-9.58-18.227-1.495-2.87-.522-5.953-.961-9.352 1.352 1.229 1.592 2.594 1.978 3.77 1.717 5.223 4.777 9.72 7.055 14.636 1.42 3.065 2.908 6.1 4.49 9.075.851 1.601.399 3.025-.09 4.519l.01-.01zm9.498-.493c0 1.1-.033 2.201.01 3.3.032.773-.293 1.262-1.095 1.567-2.64 1.003-3.603 1.103-3.802-1.806-.117-1.703-.02-3.42.04-5.13.035-.985 3.537-2.796 4.472-2.36.553.257.413.726.42 1.13.023 1.1.008 2.2.008 3.3h-.053zm-7.942.515l.015-.011c.078 1.12.7 2.035 1.704 3 .517-2.756.517-2.756-1.719-2.989zM295.247 241c-1.856-.163-3.623-1.818-5.325-3.467-.783-.759.016-1.096.737-1.227 1.279-.231 2.417-.615 2.982-1.965.398-.95.35-1.733-.482-2.394-2.71-2.15-5.205-4.568-8.127-6.459-1.282-.83-2.008-2.197-3.067-3.247-3.86-3.83-7.707-7.673-11.558-11.512-.68-.678-1.364-1.343-1.459-2.39-.024-.269-.184-.668-.39-.756-2.459-1.049-1.23-3.203-1.39-4.856-.111-1.134.788-.719 1.298-.246 2.06 1.913 4.237 3.726 6.101 5.814 2.563 2.868 5.594 5.193 8.461 7.706 4.129 3.618 8.753 6.657 12.484 10.751 2.118 2.324 3.85 4.675 3.37 8.046-.133.932-.057 1.912.054 2.856.3 2.563-.378 3.364-3.69 3.346zM9.645 4.918c-.404.905-1.734 1.26-1.104 2.36.547.957 1.574.739 2.475.737 1.86-.004 3.61-.55 5.373-1.025.8-.215 1.537-.522 1.596-1.454.057-.91-.731-1.109-1.384-1.422-.37-.177-.708-.412-1.442-.846 2.382-.323 4.364-.302 6.345-.205.742.037 1.315.551 1.467 1.15.182.717-.53 1.162-1.104 1.457-2.339 1.2-4.86 1.873-7.473 2.31-3.433.576-6.86 1.146-10.394.996 2.605-3.54 2.653-3.574 5.645-4.058zm43.41 272.834c.383-2.648.782-2.948 3.152-2.264.813.236 1.528-.048 1.917-.638.685-1.04 1.612-.966 2.685-.615.401.132.817.24 1.234.332.726.162 1.921-.057 1.956.744.03.67-1.157.846-1.873 1.084-2.527.84-5.108 1.562-7.625 2.42-1.433.49-1.623-.038-1.446-1.063zM52.541 261c-1.48-.353-2.265-1.133-2.702-2.35-.758-2.115-.78-4.263-.839-6.422.621-.687 1.65-.9 2.48-1.336.665-.349 1.387-1.226 2.152-.757.609.374.34 1.373.067 1.978-1.31 2.897-.337 5.965-1.158 8.887zm238.502-107c1.2.866 1.262 1.381.24 2-.485-.633-.188-1.331-.24-2z" fill-opacity=".241" fill="#6A3DE0"/><path d="M52.427 278.094c-.171 1.157.013 1.752 1.4 1.2 2.44-.97 4.941-1.785 7.39-2.733.694-.268 1.844-.467 1.816-1.223-.035-.904-1.193-.657-1.897-.84a11.298 11.298 0 0 1-1.196-.374c-1.039-.397-1.937-.481-2.6.694-.378.666-1.07.986-1.859.72-2.296-.773-2.683-.434-3.054 2.556m5.359 23.547h.047c0-1.077.012-2.155-.007-3.231-.007-.396.116-.855-.368-1.107-.818-.427-3.882 1.346-3.913 2.311-.053 1.674-.138 3.356-.035 5.024.174 2.849 1.017 2.75 3.326 1.768.703-.299.987-.777.96-1.534-.04-1.076-.01-2.154-.01-3.231M9.312 4.4c-2.929.496-2.975.532-5.525 4.16 3.46.154 6.814-.43 10.174-1.02 2.557-.449 5.025-1.139 7.314-2.37.562-.301 1.259-.758 1.081-1.492a1.568 1.568 0 0 0-1.436-1.18c-1.94-.1-3.88-.12-6.21.21.718.446 1.05.686 1.41.867.64.322 1.412.525 1.355 1.458-.057.956-.778 1.27-1.562 1.491-1.726.487-3.439 1.047-5.259 1.051-.882.002-1.886.225-2.423-.756-.615-1.127.686-1.491 1.081-2.42m285.343 236.609c3.308.018 3.986-.789 3.687-3.367-.111-.95-.187-1.937-.054-2.875.48-3.393-1.252-5.76-3.368-8.098-3.728-4.12-8.35-7.178-12.475-10.82-2.865-2.53-5.894-4.87-8.455-7.756-1.863-2.1-4.039-3.926-6.097-5.85-.51-.476-1.408-.894-1.297.247.16 1.663-1.068 3.831 1.389 4.887.207.089.366.49.39.761.095 1.053.778 1.723 1.458 2.406 3.848 3.863 7.692 7.73 11.55 11.585 1.058 1.057 1.783 2.433 3.064 3.268 2.92 1.904 5.413 4.336 8.121 6.501.832.665.88 1.453.482 2.41-.565 1.358-1.702 1.744-2.98 1.977-.72.131-1.519.47-.736 1.234 1.7 1.66 3.467 3.326 5.32 3.49m100.46-134.69c-1.262 0-2.557-.188-3.779.03-9.618 1.715-18.948 4.414-27.26 9.672-8.035 5.081-14.777 11.659-20.183 19.496-3.994 5.789-7.758 11.805-9.677 18.612-2.463 8.74-5.244 17.402-6.172 26.552a110.083 110.083 0 0 0-.424 16.516c.248 5.091.191 10.046-1.506 14.9-.828 2.37-.871 5.153-2.456 7.08-2.056 2.498-3.779 5.253-7.254 6.614-4.258 1.668-8.423 3.683-12.653 5.489-2.562 1.093-3.214 2.033-2.922 4.754.09.83.196 1.662.23 2.496.118 2.879.107 2.878 3.003 2.274.234-.049.476-.059.712-.104 5.769-1.094 11.47-2.49 17.127-4.045 5.605-1.54 11.141-3.327 16.716-4.976 5.288-1.565 10.65-2.91 15.864-4.688 5.052-1.723 10.075-3.533 15.208-4.995 5.295-1.508 10.83-2.104 15.931-4.381 5.044-2.252 10.249-4.215 14.854-7.288 8.074-5.387 14.568-12.304 20.052-20.365 4.97-7.307 8-15.376 10.93-23.555.18-.5.207-1.054.333-1.577.928-3.844.153-7.854 1.34-11.726.645-2.105.339-4.502.445-6.768.014-.294.037-.687-.127-.873-1.466-1.66-1.22-3.82-1.723-5.753-2.046-7.866-3.213-16.111-9.343-22.24-2.465-2.464-4.136-5.782-7.609-7.19-.201-.08-.504-.44-.475-.485.73-1.126-.466-1.167-.834-1.14-1.995.152-3.623-1.029-5.478-1.36-4.262-.758-8.574-.772-12.87-.976M6.971 11.155c-3.897-.11-3.94-.058-2.977 3.62.03.115.034.238.064.354 1.983 7.83 3.318 15.792 4.614 23.75.997 6.126 1.687 12.317 2.202 18.504.393 4.712.956 9.397 1.753 14.04a720.943 720.943 0 0 1 3.018 19.116c.792 5.496 1.56 10.997 2.44 16.48.985 6.132 1.93 12.275 2.165 18.479.162 4.318.765 8.576 1.258 12.845.788 6.817 1.833 13.605 2.76 20.406 1.147 8.408 2.5 16.783 4.202 25.095 1.151 5.623 2.511 11.239 2.917 16.947.534 7.52 1.544 14.979 2.367 22.459.855 7.773 2.132 15.499 3.164 23.254.23 1.728 1.264 2.493 2.774 2.816 2.405.514 4.837.865 7.306.737.949-.05 1.908-.19 2.536-1.06.992-.543 1.973-1.109 2.98-1.623 1.105-.565 1.532-1.43 1.393-2.653-.479-4.222-1.037-8.438-1.368-12.671-.365-4.658-2.552-9.01-2.061-13.831.19-1.859-.38-3.795-.601-5.696-.556-4.752-.822-9.56-1.727-14.246-1.92-9.945-3.406-19.945-4.327-30.02-.9-9.833-1.699-19.67-3.382-29.412-2.01-11.627-3.116-23.368-4.195-35.104-.742-8.058-2.142-16.016-3.237-24.018-.836-6.11-1.666-12.213-2.259-18.352-.489-5.06-.91-10.14-1.706-15.155-.966-6.09-1.844-12.191-2.548-18.31-.671-5.836-1.99-11.551-2.888-17.343-.489-3.155-.785-3.108-3.677-2.036-.338.125-.685.223-1.023.346-3.858 1.399-7.956 1.532-11.937 2.282m284.384 145.201l.038.742c.007 5.761.069 11.523.007 17.283-.068 6.38-2.25 12.03-6.731 16.553-4.065 4.102-8.965 6.966-14.698 8.214-.391.085-.936-.084-1.118.387-.226.577.356.836.678 1.136 1.137 1.062 2.378 2.017 3.463 3.128 4.698 4.81 9.685 9.31 15.022 13.383 3.402 2.597 6.565 5.413 9.46 8.534 2.061 2.22 3.392 2.6 6.223 1.44.656-.268 1.24-.845 1.997-.723 3.675.594 6.233-1.39 8.663-3.688.904-.855 1.666-2.172 2.726-2.485 2.068-.61 2.55-2.299 3.387-3.793.466-.832.848-1.725 1.158-2.629 1.863-5.43 3.764-10.864 3.731-16.706a374.159 374.159 0 0 0-.256-12.395c-.175-4.549.154-9.166 1.772-13.545.792-1.762.888-3.695 1.356-5.538 2.042-8.044 3.811-16.193 7.579-23.662 2.777-5.505 6.266-10.577 10.38-15.196 4.882-5.693 10.395-10.657 17.057-14.176 5.783-3.054 11.656-5.934 18.136-7.298 3.993-.84 8.027-1.653 12.074-1.772 2.793-.083 5.26-1.658 8.08-1.219 1.766.276 3.558.382 5.552.586-2.133-2.153-4.862-3.05-7.176-4.568-3.304-2.169-6.925-3.852-10.256-5.984-5.664-3.623-11.339-7.213-17.375-10.197-.484-.24-1.01-.62-1.526-.42-1.25.487-2.345-.076-3.494-.336-8.984-2.033-17.868-1.084-26.747.798-4.496.953-8.876 2.292-13.06 4.105-4.384 1.899-7.485 5.741-11.52 8.27-3.143 1.971-5.555 4.955-7.863 7.866-2.704 3.41-5.545 6.778-7.011 10.994-1.785 3.034-3.713 5.977-5.321 9.122-2.17 4.242-2.477 8.943-3.56 13.445-1.406 5.85-1.642 11.82-1.081 17.814.055.846-.26 1.73.254 2.53m-39.368 73.574c.145.26.25.553.44.773 3.178 3.696 7.213 6.443 10.778 9.711.397.364.929.405 1.36.256 3.382-1.167 6.994-1.453 10.342-2.735 4.686-.284 8.983-2.008 13.331-3.556 2.106-.75 2.156-.793.56-2.305-3.037-2.877-6.672-5.034-9.43-8.28-3.609-4.248-8.167-7.631-11.536-12.098-1.218-1.616-2.237-1.873-4.136-1.308-3.548 1.054-7.215 1.708-10.832 2.529-9.116 2.08-17.947 5.24-27.133 7.072-4.402.878-8.687 2.279-13.07 3.283-10.681 2.448-21.415 4.658-31.948 7.754-7.333 2.156-14.846 3.647-22.407 4.86-2.774.446-5.512 1.186-8.22 1.955-9.033 2.567-17.965 5.54-27.088 7.726-8.854 2.123-17.635 4.488-26.43 6.82-5.217 1.383-10.486 2.576-15.698 3.98-2.834.763-6.03.11-8.538 2.179-.309.255-.819.224-1.209-.004-.53-.31-1.031-.166-1.557.002-4.35 1.386-8.8 2.38-13.254 3.343-.806.174-1.15.527-1.26 1.241-.412 2.662-.808 5.326-1.218 7.988-.181 1.175.26 1.296 1.296.946 1.814-.616 3.673-1.101 5.518-1.623 3.197-.904 6.442 1.275 6.117 4.097-.384 3.327-2.377 5.665-5.637 6.47-2.044.504-4.044 1.116-5.998 1.901-.797.321-1.005.697-.537 1.473 1.608 2.672 3.175 5.37 4.771 8.049.308.515.644 1.078 1.398.88 2.489-.656 5.119-.504 7.568-1.462 2.39-.935 2.387-.826 1.134-3.13-.485-.893-1.415-2.128-.087-2.826 1.31-.69 1.544.866 2.074 1.652.033.05.055.107.085.16 1.55 2.755 1.548 2.751 4.44 1.593.613-.246 1.248-.433 1.86-.68 2.48-1.004 5.174-.977 7.73-1.618 1.235-.31 1.792-.572.733-1.95-3.63-4.72-6.429-9.974-9.337-15.15-.286-.51-.94-1.235-.044-1.693.772-.395 1.616-.384 2.131.626.627 1.227 1.333 2.416 2.018 3.613 2.176 3.8 4.376 7.583 7 11.1 1.713 2.296 1.77 2.27 4.454 1.515a173.539 173.539 0 0 1 8.187-2.098c3.048-.7 3.038-.638 1.433-3.286-.538-.888-1.452-2.084-.193-2.808 1.274-.733 1.623.753 2.102 1.587 1.792 3.12 1.783 3.118 5.211 2.363.878-.194 1.77-.323 2.65-.506 2.898-.603 5.769-1.297 8.786-2.5-5.994-4.225-10.054-9.779-13.813-15.579-.292-.45-1.35-1.109-.292-1.759.863-.532 1.747-.623 2.44.521 3.673 6.072 8.379 11.225 14.01 15.544.535.41.992.485 1.645.364 3.373-.63 6.594-1.806 9.9-2.674.876-.23.963-.577.294-1.192-.835-.768-1.785-1.446-2.278-2.517-.241-.524-.253-1.077.24-1.48.487-.396 1.11-.412 1.44.097.837 1.289 2.279 1.983 3.11 3.218.561.835 1.164.894 1.983.696 3.438-.831 6.882-1.637 10.315-2.488 1.85-.46 1.901-.572.52-1.899-4.343-4.17-7.722-9.17-11.798-13.566-.595-.643-.497-.86.318-1.21 1.673-.718 2.483.378 3.287 1.413 3.466 4.458 7.123 8.743 11.255 12.6.797.745 1.589 1.803 2.898 1.468 2.788-.715 5.549-1.537 8.326-2.294.768-.21.866-.51.288-1.073-.904-.879-1.787-1.778-2.666-2.683-.465-.48-.637-1.06-.212-1.626.431-.575 1.11-.642 1.591-.186 1.253 1.187 2.766 2.23 3.415 3.86.354.888.628.915 1.39.706 3.004-.825 5.947-1.889 9.029-2.424 1.603-.278 1.29-.865.39-1.772-4.405-4.443-8.191-9.404-11.88-14.438-.306-.418-1.078-.991-.36-1.502.623-.444 1.509-.902 2.26-.023.272.318.527.653.773.991 3.67 5.058 7.707 9.805 12.056 14.293.93.961 1.845 1.294 3.202.856 2.335-.754 4.73-1.336 7.119-1.91 1.263-.304 1.126-.77.384-1.532a16.923 16.923 0 0 1-1.493-1.793c-.453-.619-.417-1.244.22-1.743.72-.563 1.216-.142 1.663.418.41.515.819 1.032 1.218 1.555 1.152 1.506 2.485 1.89 4.401 1.311 2.758-.831 5.488-1.732 8.224-2.622 1.279-.415 1.47-.815.374-1.682-5.096-4.036-8.773-9.326-12.666-14.42-.342-.447-1.229-1.02-.46-1.6.68-.516 1.642-.778 2.368.229.736 1.02 1.55 1.984 2.313 2.985 3.209 4.206 6.625 8.21 10.76 11.565 1.27 1.03 2.411 1.518 4.066.82 1.647-.696 3.448-1.017 5.164-1.557.841-.265 2.216-.102 2.409-.854.238-.93-1.048-1.41-1.738-2.026-.09-.08-.195-.147-.266-.24-.367-.48-.806-.959-.305-1.594.514-.65 1.166-.632 1.748-.175.847.666 1.575 1.488 2.446 2.116.835.602 1.53 1.549 2.827 1.248 2.805-.65 5.628-1.22 8.343-2.203.44-.159 1.07-.168 1.178-.69.131-.637-.548-.839-.929-1.194-4.814-4.49-10.062-8.572-13.562-14.305-.248-.407-.994-.882-.322-1.336.533-.36 1.306-.732 2.006-.233.332.236.593.598.823.945 1.863 2.812 3.95 5.42 6.598 7.555 2.799 2.255 5.086 5.108 8.17 7.035.612.383 1.199.806 1.996.62 2.393-.558 4.783-1.13 7.188-1.639 1.004-.212 1.276-.48.468-1.333-.613-.646-1.105-1.414-1.609-2.157-.44-.648-.34-1.264.31-1.726.72-.51 1.32-.163 1.66.459.502.92 1.288 1.57 1.935 2.35.872 1.053 1.812 1.295 3.144.881 2.23-.692 4.52-1.195 6.787-1.77.398-.1.962-.001 1.1-.454.176-.578-.439-.761-.791-1.042A73.016 73.016 0 0 1 245.4 226.06c-.954-1.313-.8-1.592.788-1.829.834-.124 1.21.39 1.63.882.623.728 1.21 1.486 1.813 2.232.186.527.593.859 1.032 1.16 0 .105.034.196.1.275.243.56.627.969 1.225 1.15M49.1 252.498c-3.575.473-7.063-.438-10.763-.862 1.026 2.559 2 4.872 2.885 7.219 1.647 4.368 3.338 8.723 4.563 13.24.164.608.137 1.674 1.135 1.502.907-.156 1.792-.098 2.682-.127.852-.028 1.194-.512 1.276-1.224.41-3.549.79-7.1 1.18-10.65.686-3.03-.126-6.213.967-9.216.228-.628.453-1.663-.056-2.051-.638-.487-1.242.423-1.798.785-.693.452-1.552.673-2.071 1.384m-6.086 19.174c-.28-2.166-1.33-4.097-1.878-6.173-.4-1.519-1.125-1.643-2.427-1.215-2.26.742-2.75 1.658-1.624 4.043 1.124 2.381 2.465 4.66 3.712 6.984.654 1.825 1.315 3.707 2.096 5.416 1.902 4.162 3.936 8.307 6.5 12.144 2.65 3.97 2.745 3.966 7.207 2.198 1.226-.485 1.214-.945.624-1.921-1.516-2.51-3.055-5.015-4.384-7.624-.595-1.169-1.128-1.446-2.348-1.042-2.617.865-2.537.774-3.397-1.73-1.279-3.721-2.713-7.39-4.081-11.08m6.497 30.986c.056 1.03.5 1.872 1.217 2.76.368-2.535.368-2.535-1.227-2.75.503-1.468.97-2.868.092-4.442a178.72 178.72 0 0 1-4.629-8.923c-2.348-4.834-5.503-9.254-7.274-14.39-.398-1.155-.645-2.498-2.039-3.706.453 3.342-.55 6.372.99 9.194 3.269 5.988 6.203 12.162 9.878 17.921.94 1.475 1.29 3.382 2.992 4.336M435.321 158.52l-.141.72c-.419.707-.384 1.425-.05 2.15.06 2.453-.48 4.91-1.257 7.107-2.614 7.394-5.178 14.856-9.807 21.344-2.504 3.509-4.835 7.15-7.656 10.419-3.226 3.734-7.025 6.842-10.978 9.782-10.338 7.687-22.144 11.775-34.623 14.281-3.24.65-6.304 1.93-9.41 3.04-2.912.553-5.597 1.749-8.283 2.94l-7.557 2.224c-5.787 1.235-11.396 3.076-16.989 4.97-3.595.552-6.865 2.25-10.416 2.96-.473-.163-.938-.088-1.414.017-4.667 1.022-9.255 2.405-13.993 3.115-.352.053-.824.09-1.01.322-1.045 1.293-2.393.757-3.698.816-1.065.048-1.327-1.095-2.099-1.126-3.53-.14-5.841-2.53-8.445-4.394-.47-.457-.402-1.493-1.44-1.34-.311-.057-.572.009-.74.301l-1.069.393c-.98.082-1.967.142-2.722.903l-1.235.217c-1.101-.146-2.166.17-3.178.462-4.083 1.18-8.594.955-12.22 3.67-.195.147-.622.152-.861.046-1.508-.671-2.961-.175-4.401.184-3.605.897-7.188 1.88-10.793 2.776a18513.175 18513.175 0 0 1-34.687 8.58c-.95.234-1.835.456-2.26 1.517-.211.525-.83.917-1.334.555-1.136-.817-2.195-.317-3.234.043-6.46 2.232-13.034 4.068-19.668 5.704-.917.227-1.977.41-2.622.998-.368.334.663 1.264.49 2.075-.656.697-1.45.574-2.256.382-1.029-.94-1.982-1.604-3.636-1.266-9.746 1.994-19.092 5.507-28.906 7.304-6.938 1.27-13.835 2.957-20.576 5.129-3.404 1.097-7.024 1.41-10.314 2.9l-1.431.412c-6.964 1.62-13.929 3.237-20.89 4.869-.85.2-1.803.198-2.4 1.012-1.368.066-2.677.302-3.714 1.301-.561.54-1.225.31-1.866.27-.641-.574-1.274-.042-1.824.123-1.997.601-4.031.99-6.087 1.286a18.723 18.723 0 0 0-6.512 2.217c-4.012 1.27-7.953 2.748-12.196 3.214-2.445.268-2.763.906-2.712 3.303.049 2.242.242 4.439 1.493 6.396-.889.346-1.82.785-2.186 1.654-.562 1.33-1.719 1.869-2.787 2.57-1.544.459-3.088.922-4.633 1.378-1.08.318-1.553-.446-1.945-1.189-1.653-3.13-3.449-6.182-5.436-9.104-1.095-1.61-2.36-3.223-3.109-4.919-1.001-2.266-3.26-3.804-3.514-6.423a.96.96 0 0 0-.194-.495c-2.284-2.734-2.988-6.234-4.522-9.33-.206-.416-.406-.931-.35-1.366.53-3.999.462-8.01.285-12.02-.086-1.943 1.546-2.459 2.742-3.074 2.21-1.138 2.767-1.74 2.012-4.224-.899-2.96-1.905-5.89-3.082-8.768-.909-2.22-.738-4.71-1.137-7.067-.937-5.546-1.802-11.105-2.66-16.664-.155-1-.138-2.025-.2-3.038.195-.714.095-1.42-.004-2.137-.336-2.429-.672-4.858-.95-7.294-.491-4.28-.68-8.6-1.233-12.86-1.572-12.1-4.526-23.969-6.211-36.065-1.213-8.704-2.21-17.434-3.311-26.15-.846-6.697-1.918-13.373-2.317-20.123-.355-5.984-1.724-11.827-2.426-17.763-.062-.526.03-1.12-.682-1.3-.003-5.002-1.177-9.862-1.847-14.78-1.3-9.555-3.227-19.02-3.903-28.666-.475-6.798-2.052-13.44-3.231-20.136-.88-5.002-1.075-10.102-2.118-15.082C1.972 17.017 1.36 13.29.117 9.71c-.497-1.43.667-3.995 1.986-4.77C7.248 1.917 12.714.044 18.754.092c1.387.011 2.764.01 4.097.451 1.811.6 2.311 1.556 2.245 3.492a17.556 17.556 0 0 0 .36 4.044c2.258 10.87 3.612 21.872 5.268 32.834.968 6.407 1.906 12.826 2.526 19.256 1.855 19.22 5.42 38.215 7.17 57.452 1.053 11.577 3.017 23.07 4.408 34.619 1.033 8.576 1.727 17.191 2.712 25.773.827 7.212 2.254 14.336 3.398 21.501.593 3.715.983 7.474 1.204 11.254.103 1.776-.087 3.672.584 5.421-1.712 3.038-.59 5.702 1.098 8.29.1.408.217.811.3 1.221 1.176 5.776 1.578 11.65 2.133 17.499.113 1.18 1.108 1.945.948 3.19-.489 3.798-.855 7.61-1.304 11.411-.165 1.393.264 1.84 1.705 1.497 8.866-2.115 17.687-4.39 26.62-6.26 9.489-1.986 18.737-5.09 28.173-7.365a569.162 569.162 0 0 0 23.052-6.046c5.597-1.6 11.118-3.466 16.772-4.873 4.25-.612 8.36-1.896 12.61-2.559 7.802-1.218 15.378-3.465 23.005-5.462 4.029-1.055 8.097-1.972 12.017-3.413l1.035-.132c1.757-.19 3.516-.374 5.098-1.268 2.3-.33 4.57-.784 6.821-1.368 3.845-.998 7.679-2.062 11.565-2.868 3.15-.653 6.265-1.408 9.352-2.3 3.104-.329 6.102-1.186 9.021-2.197 3.865-1.338 7.763-2.462 11.792-3.156 1.046-.18 2.154-.252 3.032-.986 1.444-.218 2.912-.312 4.309-.792.991-.071 2.481-.006 2.363-1.234-.203-2.11.204-4.26-.412-6.334.037-1.408.6-2.472 1.973-3.005 1.522.009 2.854-.762 4.308-1.073 2.761-.59 5.183-2.011 7.414-3.736 5.712-2.872 9.295-7.628 10.33-13.729 1.307-7.703.504-15.555.29-23.346-.125-4.535-.716-9.054-.001-13.615.4-2.56 1.056-5.134.74-7.777.097-.784.926-1.313.768-2.187.141-.33.364-.647.41-.99.835-6.084 3.613-11.336 6.635-16.585 3.33-5.784 6.543-11.571 11.126-16.523 6.65-7.183 14.053-13.222 23.362-16.646 5.93-2.181 12.004-3.627 18.284-4.477 7.127-.966 14.139-.535 20.896 1.592 4.122 1.298 7.95 3.615 11.704 5.87 3.088 1.855 5.966 4.185 9.248 5.561 4.985 2.09 9.1 5.52 13.783 8.036 1.752.94 3.337 2.133 4.774 3.513l.035.153.155.004.784.545c1.668 2.154 3.898 3.648 6.061 5.237 3.008 2.21 5.387 5.083 7.935 7.774 5.655 7.264 8.789 15.63 10.82 24.5 1.014 4.427 1.623 8.818.008 13.223-.325.888-.13 1.725.068 2.58.037 1.004-1.438 1.792-.42 2.936" fill="#6A3DE0"/></g></svg>