<?xml version="1.0" encoding="UTF-8"?>
<svg width="48px" height="48px" viewBox="0 0 48 48" version="1.1" xmlns="http://www.w3.org/2000/svg" xmlns:xlink="http://www.w3.org/1999/xlink">
    <!-- Generator: Sketch 51.1 (57501) - http://www.bohemiancoding.com/sketch -->
    <title>resource-icon-sketchrunner</title>
    <desc>Created with Sketch.</desc>
    <defs></defs>
    <g id="Design-System" stroke="none" stroke-width="1" fill="none" fill-rule="evenodd">
        <g id="resource-icon-sketchrunner" fill-rule="nonzero">
            <path d="M43.648727,0 L4.351273,0 C1.948182,0 0,1.948182 0,4.351273 L0,43.648727 C0,46.051818 1.948182,48 4.351273,48 L43.648727,48 C46.051818,48 48,46.051818 48,43.648727 L48,4.351273 C48,1.948182 46.051818,0 43.648727,0 Z" id="Invision" fill="#308ADF"></path>
            <path d="M40.1445161,39.2333763 L34.5496774,39.2333763 C33.5036559,39.2333763 32.7466667,38.8342366 32.2787097,38.035957 L26.5806452,28.8488602 C26.3466667,28.4910108 26.0886022,28.2295054 25.8064516,28.0643441 C25.5243011,27.8991828 25.107957,27.8166022 24.5574194,27.8166022 L22.4516129,27.8166022 L22.4516129,39.2333763 L16.2580645,39.2333763 L22.6105806,23.4783656 L26.5806452,23.4783656 C26.5806452,23.4783656 31.3995699,23.0971183 31.3995699,18.2461935 C31.3995699,13.7396989 26.1694624,13.9877849 26.1694624,13.9877849 C26.1694624,13.9877849 27.2660645,9.31027957 27.9931183,9.37703226 C29.1206882,9.48025806 30.136086,9.664 31.04,9.92756989 C32.5264516,10.3611183 33.7445161,10.9632688 34.6941935,11.7340215 C35.643871,12.5047742 36.3389247,13.4234839 36.7793548,14.4901505 C37.2197849,15.5568172 37.44,16.7301505 37.44,18.0101505 C37.44,19.0011183 37.2989247,19.9404731 37.0167742,20.8282151 C36.7346237,21.715957 36.3251613,22.5245591 35.7883871,23.2540215 C35.2516129,23.9834839 34.5909677,24.6303656 33.8064516,25.1946667 C33.0219355,25.7589677 32.1273118,26.2131613 31.1225806,26.5572473 C31.5217204,26.7774624 31.8933333,27.0424086 32.2374194,27.352086 C32.5815054,27.6617634 32.8911828,28.0299355 33.1664516,28.4566022 L40.1445161,39.2333763 Z" id="Shape" fill="#FFFFFF"></path>
            <path d="M13.2941075,37.8556559 C13.0412043,38.5207742 12.6389677,39.0231398 12.0867097,39.3624086 C11.5344516,39.7016774 10.9725591,39.8713118 10.4003441,39.8713118 L8.06537634,39.8713118 L19.5805591,10.0755269 C19.8066237,9.4768172 20.1658495,9.01126882 20.6582366,8.67853763 C21.1502796,8.34580645 21.715957,8.1796129 22.3545806,8.1796129 L24.7095054,8.1796129 L13.2941075,37.8556559 Z" id="Shape" fill="#FCD872"></path>
        </g>
    </g>
</svg>